<?xml version="1.0" standalone="no"?>
<!DOCTYPE svg PUBLIC "-//W3C//DTD SVG 20010904//EN"
 "http://www.w3.org/TR/2001/REC-SVG-20010904/DTD/svg10.dtd">
<svg version="1.0" xmlns="http://www.w3.org/2000/svg"
 width="500.000000pt" height="500.000000pt" viewBox="0 0 500.000000 500.000000"
 preserveAspectRatio="xMidYMid meet">
<metadata>
Created by potrace 1.11, written by Peter Selinger 2001-2013
</metadata>
<g transform="translate(0.000000,500.000000) scale(0.100000,-0.100000)"
fill="#000000" stroke="none">
<path d="M2135 4880 c-38 -10 -133 -32 -210 -50 -203 -47 -366 -114 -490 -201
-27 -19 -54 -37 -59 -41 -6 -4 -8 -9 -5 -13 7 -6 340 54 504 91 61 14 128 27
151 29 22 3 95 16 161 30 255 53 466 53 780 0 81 -14 169 -27 194 -29 68 -7
157 -40 307 -113 148 -73 385 -165 390 -152 6 16 -63 92 -125 135 -57 41 -196
112 -253 129 -14 4 -52 20 -85 35 -92 43 -286 108 -399 132 -90 20 -133 23
-391 24 -159 1 -315 4 -345 7 -36 3 -79 -1 -125 -13z"/>
<path d="M1180 4467 c-117 -59 -177 -97 -265 -171 -111 -92 -187 -171 -258
-266 -39 -52 -96 -126 -128 -165 -65 -81 -106 -155 -115 -215 -4 -27 -17 -52
-38 -72 -57 -57 -103 -128 -110 -167 -3 -22 -28 -97 -56 -169 -27 -71 -57
-161 -66 -198 -9 -38 -25 -85 -34 -104 -47 -95 -48 -191 -3 -385 34 -148 31
-139 48 -125 65 54 134 269 159 501 9 73 18 152 21 174 6 34 72 211 157 420
28 70 107 199 203 335 45 63 92 135 105 160 26 51 167 194 352 355 68 59 132
116 143 126 34 33 -3 22 -115 -34z"/>
<path d="M4075 4257 c-31 -48 11 -101 61 -78 33 14 30 31 -10 70 l-34 33 -17
-25z"/>
<path d="M4233 4116 c3 -52 8 -63 36 -88 38 -34 74 -34 79 -1 2 15 -15 40 -58
85 l-61 63 4 -59z"/>
<path d="M3520 3479 l0 -351 -22 5 c-201 48 -223 51 -403 51 -203 -1 -277 -15
-409 -78 -127 -61 -196 -122 -260 -230 -102 -170 -130 -292 -131 -561 0 -259
34 -413 133 -600 39 -73 59 -99 117 -148 78 -65 199 -129 290 -152 33 -9 112
-18 175 -22 326 -17 596 90 693 275 68 129 67 111 67 1192 l0 970 -125 0 -125
0 0 -351z m-264 -534 c50 -8 129 -27 175 -42 l84 -28 0 -520 0 -520 -29 -53
c-48 -86 -128 -133 -265 -158 -215 -38 -392 1 -512 113 -118 110 -179 342
-166 633 7 160 27 255 76 355 43 86 87 129 186 178 107 54 280 70 451 42z"/>
<path d="M4560 3642 c0 -39 11 -74 54 -163 30 -63 54 -121 54 -129 0 -8 35
-118 77 -245 l78 -230 -1 -273 -1 -273 -41 -157 c-22 -86 -56 -204 -75 -262
-19 -58 -37 -118 -39 -133 -11 -65 -135 -373 -156 -387 -4 -3 -30 -50 -58
-105 -67 -129 -138 -223 -215 -282 -33 -26 -101 -82 -150 -126 -359 -316 -772
-507 -1232 -571 -57 -7 -188 -11 -355 -10 -283 2 -380 13 -598 69 -278 70
-588 219 -852 408 -116 83 -287 251 -376 370 -86 114 -241 420 -329 652 -13
33 -53 120 -89 192 -36 73 -66 137 -66 142 0 5 -7 12 -16 15 -24 9 -28 7 -15
-8 8 -10 8 -21 1 -40 -5 -15 -10 -40 -10 -55 0 -49 76 -334 120 -446 23 -60
50 -131 60 -158 28 -72 115 -231 184 -335 112 -167 190 -252 461 -498 124
-112 365 -262 530 -328 33 -13 94 -38 135 -56 41 -17 129 -48 195 -68 l120
-37 220 3 c121 2 327 -2 459 -9 335 -18 449 -1 711 107 61 25 139 57 175 70
183 70 405 214 555 360 28 27 97 94 154 149 149 142 221 246 265 380 12 37 32
67 77 110 76 75 122 142 186 270 116 231 165 418 167 630 1 130 -21 433 -50
685 -24 209 -75 392 -165 586 -22 49 -42 97 -44 106 -6 27 -63 106 -85 118
-19 10 -20 7 -20 -38z"/>
<path d="M1240 3405 l0 -245 -145 0 -145 0 0 -115 0 -115 145 0 145 0 0 -557
c0 -336 4 -584 11 -623 27 -170 121 -275 299 -336 75 -26 252 -26 333 -1 l57
18 0 115 c0 107 -1 116 -17 109 -126 -53 -304 -42 -366 23 -56 58 -57 74 -57
689 l0 563 220 0 220 0 0 115 0 115 -220 0 -220 0 0 245 0 245 -130 0 -130 0
0 -245z"/>
</g>
</svg>
